<svg width="154" height="172" viewBox="0 0 154 172" fill="none" xmlns="http://www.w3.org/2000/svg">
<path d="M110.999 41.5313H71.4081C70.2881 41.5313 69.334 42.4869 69.334 43.6087V154.359C69.334 159.461 69.1847 164.596 69.334 169.698C69.334 169.773 69.334 169.839 69.334 169.914C69.334 171.036 70.2881 171.992 71.4081 171.992H111.646C112.766 171.992 113.72 171.036 113.72 169.914V129.613L111.646 131.69H151.884C153.004 131.69 153.959 130.735 153.959 129.613V95.7513C153.959 91.6796 154.041 87.5996 153.942 83.5362C153.685 72.9996 149.512 62.8038 142.318 55.1091C135.125 47.4144 125.319 42.7029 114.907 41.7141C113.604 41.5894 112.302 41.5313 110.991 41.5313C108.319 41.523 108.319 45.6777 110.991 45.6861C120.772 45.7193 130.305 49.4171 137.457 56.1229C144.608 62.8287 149.022 71.9443 149.702 81.6416C149.993 85.813 149.802 90.0592 149.802 94.2306V124.677C149.802 126.231 149.694 127.826 149.802 129.38C149.802 129.455 149.802 129.53 149.802 129.604L151.876 127.527H111.638C110.518 127.527 109.564 128.483 109.564 129.604V169.906L111.638 167.829H71.3998L73.474 169.906V48.7689C73.474 47.1319 73.5818 45.4617 73.474 43.8247C73.474 43.7499 73.474 43.6834 73.474 43.6087L71.3998 45.6861H110.991C113.662 45.6861 113.662 41.5313 110.991 41.5313H110.999Z" fill="#E91315"/>
<path d="M150.424 128.142C145.878 132.696 141.34 137.241 136.793 141.795C129.583 149.016 122.374 156.237 115.156 163.466C113.496 165.128 111.837 166.79 110.186 168.444C108.294 170.338 111.231 173.272 113.123 171.385C117.67 166.832 122.208 162.286 126.754 157.733C133.964 150.512 141.174 143.291 148.392 136.061C150.051 134.399 151.71 132.737 153.361 131.084C155.253 129.189 152.316 126.256 150.424 128.142Z" fill="#E91315"/>
<path d="M108.519 68.9694C108.452 62.9532 104.727 57.66 99.1103 55.5494C93.4935 53.4387 87.0886 55.2669 83.3718 59.779C79.5554 64.4157 78.9165 71.0966 82.0277 76.2901C85.1389 81.4836 91.2037 84.0762 97.1025 82.9544C103.723 81.6996 108.444 75.617 108.527 68.9694C108.56 66.2937 104.412 66.2937 104.379 68.9694C104.329 73.1325 101.749 77.0878 97.7579 78.4838C93.7673 79.8798 89.03 78.6749 86.3087 75.2265C83.5875 71.778 83.4879 67.2077 85.6865 63.6346C87.8851 60.0615 92.2076 58.1752 96.2811 59.0477C100.985 60.0532 104.32 64.1664 104.379 68.9777C104.412 71.6533 108.56 71.6533 108.527 68.9777L108.519 68.9694Z" fill="#E91315"/>
<path d="M94.265 73.3237C96.666 73.3237 98.6124 71.3742 98.6124 68.9695C98.6124 66.5647 96.666 64.6152 94.265 64.6152C91.8641 64.6152 89.9177 66.5647 89.9177 68.9695C89.9177 71.3742 91.8641 73.3237 94.265 73.3237Z" fill="#E91315"/>
<path d="M71.4081 36.8029H132.429C144.642 36.8029 150.64 28.5764 151.752 23.8981C152.863 19.2281 147.263 7.43685 133.624 22.1199C133.624 22.1199 141.754 6.32336 130.869 2.76686C119.984 -0.789637 107.473 10.1042 102.512 20.5577C102.512 20.5577 103.109 7.6529 91.8923 10.769C80.6754 13.8851 71.4081 36.7946 71.4081 36.7946V36.8029Z" fill="#E91315"/>
<path d="M71.4082 38.8805H131.774C136.312 38.8805 140.8 38.0329 144.741 35.6979C148.79 33.313 152.623 29.2247 153.726 24.5215C154.514 21.1727 153.17 17.101 150.54 14.8907C146.259 11.2843 140.759 13.3534 136.793 16.3947C135.117 17.6827 133.591 19.1203 132.155 20.6575L135.416 23.1754C136.337 21.3805 137.059 19.4443 137.614 17.5165C138.568 14.2093 139.149 10.3869 138.004 7.05476C136.453 2.54266 132.247 0.44034 127.708 0.0664085C122.357 -0.382309 117.014 1.96099 112.791 5.08539C107.722 8.83302 103.458 13.8271 100.728 19.5274L104.594 20.5745C104.694 18.3142 104.246 15.9294 103.375 13.852C102.62 12.0654 101.442 10.4783 99.7657 9.44792C97.6998 8.17656 95.2358 8.06022 92.8961 8.44246C88.1671 9.20695 84.3175 12.5142 81.2893 16.0457C78.0869 19.7767 75.4569 23.9897 73.1587 28.3273C71.7898 30.9116 70.5121 33.554 69.4087 36.2629C68.9856 37.3016 69.865 38.5481 70.8606 38.8223C72.047 39.1464 72.9928 38.4151 73.4159 37.3681C73.4325 37.3349 73.4408 37.3016 73.4574 37.2684C73.6482 36.8114 73.2749 37.6922 73.3993 37.4014C73.5736 37.0108 73.7395 36.6203 73.9054 36.2297C74.5028 34.8919 75.1333 33.5623 75.797 32.2494C77.7384 28.3938 79.9121 24.6378 82.4757 21.1644C83.687 19.5274 85.2385 17.716 86.848 16.2285C87.6942 15.4474 88.2086 15.0237 89.0383 14.4503C89.4365 14.1844 89.843 13.9268 90.2579 13.6941C90.4321 13.5944 90.6063 13.503 90.7888 13.4116C90.905 13.3534 91.0294 13.2953 91.1456 13.2371C91.4857 13.0709 91.0709 13.262 91.2783 13.1789C92.1826 12.8133 93.4188 12.4892 94.1655 12.4144C94.6716 12.3646 95.1777 12.3646 95.6838 12.3812C95.7833 12.3812 95.8829 12.3978 95.9825 12.4061C96.3226 12.4394 95.6838 12.348 96.0073 12.4061C96.2479 12.456 96.4802 12.5058 96.7208 12.5723C96.9117 12.6305 97.1108 12.697 97.2933 12.7718C96.92 12.6139 97.3348 12.805 97.4675 12.8881C97.6252 12.9878 97.7911 13.0792 97.9487 13.1872C97.9902 13.2122 98.1976 13.3784 97.9902 13.2122C97.7496 13.0294 98.0981 13.3119 98.1395 13.3534C98.405 13.6027 98.6456 13.8603 98.8779 14.1428C98.6207 13.8271 98.853 14.1096 98.9526 14.2758C99.0522 14.442 99.1683 14.6165 99.2679 14.7993C99.3674 14.9821 99.4504 15.1566 99.5417 15.3394C99.7657 15.7632 99.467 15.0818 99.6246 15.5305C99.7574 15.8962 99.8818 16.2618 99.9897 16.644C100.098 17.0263 100.18 17.4085 100.255 17.7907C100.288 17.9652 100.313 18.1314 100.346 18.3059C100.438 18.8294 100.33 18.0483 100.346 18.3641C100.396 19.0953 100.487 19.8266 100.454 20.5578C100.363 22.5521 103.424 23.4745 104.32 21.6048C106.469 17.1177 109.58 13.1457 113.347 9.90495C116.732 6.98829 121.071 4.43725 125.634 4.17134C126.563 4.12148 127.501 4.12979 128.422 4.27937C129.459 4.44556 130.612 4.79456 131.351 5.1768C132.139 5.59228 132.363 5.75016 132.894 6.29859C133.026 6.43155 133.151 6.57281 133.275 6.72238C133.002 6.38169 133.367 6.86365 133.391 6.90519C133.491 7.06308 133.591 7.21265 133.682 7.37884C133.723 7.45362 134.047 8.13501 133.864 7.71122C134.13 8.33444 134.287 8.99921 134.404 9.66397C134.511 10.2706 134.37 9.24018 134.429 9.85509C134.445 10.0462 134.462 10.229 134.47 10.4201C134.495 10.8689 134.495 11.3093 134.47 11.758C134.412 13.2703 134.229 14.1927 133.773 15.8712C133.408 17.234 132.935 18.5552 132.404 19.8598C132.661 19.22 132.379 19.918 132.305 20.0759C132.222 20.2504 132.147 20.4332 132.064 20.6077C131.989 20.7573 131.923 20.9068 131.848 21.0564C130.811 23.0756 133.425 25.3691 135.109 23.5742C137.233 21.3057 140.029 18.6882 142.684 17.6329C143.19 17.4334 143.712 17.2922 144.243 17.1592C144.359 17.126 144.492 17.1094 144.608 17.0844C144.202 17.1592 144.5 17.0927 144.592 17.0844C144.874 17.0595 145.156 17.0429 145.438 17.0512C145.587 17.0512 146.226 17.1343 145.679 17.0512C145.878 17.0844 146.077 17.126 146.276 17.1758C146.475 17.2257 146.649 17.2922 146.84 17.3503C146.956 17.3836 147.18 17.5248 146.741 17.3088C146.848 17.3586 146.956 17.4085 147.056 17.4667C147.213 17.5664 147.379 17.6661 147.537 17.7575C147.96 17.9902 147.321 17.5248 147.67 17.8572C147.96 18.1314 148.234 18.3973 148.499 18.6965C148.715 18.9458 148.309 18.3558 148.591 18.8294C148.69 18.9873 148.79 19.1369 148.889 19.2948C148.989 19.4527 149.064 19.6188 149.155 19.7767C149.337 20.1091 149.337 20.1756 149.254 19.9679C149.512 20.6575 149.694 21.3389 149.819 22.0619C149.694 21.3805 149.819 22.3776 149.819 22.602C149.819 22.7516 149.802 22.9094 149.802 23.059C149.802 23.5908 149.918 22.71 149.802 23.0923C149.711 23.4246 149.644 23.757 149.536 24.0894C149.478 24.2805 149.404 24.4716 149.337 24.6628C149.312 24.7292 149.188 25.045 149.296 24.7874C149.412 24.5049 149.23 24.937 149.205 24.9951C148.757 25.9424 148.226 26.8316 147.62 27.6875C147.388 28.0115 147.205 28.2359 146.782 28.7095C146.359 29.1832 145.936 29.6153 145.471 30.0391C144.525 30.9116 143.704 31.5099 142.543 32.1829C139.224 34.1108 135.515 34.734 131.724 34.734H87.5366C82.2517 34.734 76.9419 34.5927 71.6571 34.734C71.5741 34.734 71.4911 34.734 71.4082 34.734C68.7367 34.734 68.7367 38.8888 71.4082 38.8888V38.8805Z" fill="#E91315"/>
<path d="M71.964 105.133C66.2228 103.164 60.4899 101.194 54.7487 99.2165C53.9357 98.934 53.1226 98.6597 52.3096 98.3772L52.8073 102.175C58.5485 99.6818 64.2897 97.1889 70.0392 94.6961C70.844 94.3471 71.657 93.9981 72.4618 93.6408C73.4906 93.192 73.7229 91.688 73.2085 90.7989C72.5862 89.7353 71.3998 89.6023 70.3711 90.051C64.6299 92.5439 58.8887 95.0368 53.1392 97.5296C52.3344 97.8786 51.5214 98.2276 50.7166 98.585C48.9412 99.3577 49.7044 101.867 51.2144 102.382C56.9556 104.352 62.6885 106.321 68.4297 108.299C69.2428 108.581 70.0558 108.856 70.8689 109.138C73.3993 110.011 74.4862 105.997 71.9723 105.133H71.964Z" fill="#E91315"/>
<path d="M72.8766 86.5279C67.152 81.8496 61.4191 77.1713 55.6945 72.493C54.8732 71.8199 54.0518 71.1469 53.2222 70.4738L51.7537 74.022H71.4081C74.0796 74.022 74.0796 69.8672 71.4081 69.8672H51.7537C50.0861 69.8672 48.8416 72.2354 50.2852 73.4154C56.0098 78.0937 61.7427 82.772 67.4673 87.4503C68.2887 88.1233 69.11 88.7964 69.9397 89.4695C70.8108 90.1758 72.0221 90.3171 72.8766 89.4695C73.6067 88.7382 73.7478 87.2425 72.8766 86.5279Z" fill="#E91315"/>
<path d="M18.186 66.1195C17.879 66.0531 17.8707 65.6126 18.1694 65.5212C31.6927 61.4246 42.2376 70.7895 46.0457 76.6312C48.3189 80.1212 51.6956 83.3868 54.1182 85.5058C55.4042 86.6276 55.0889 88.7216 53.5292 89.4113C52.4589 89.8849 50.7498 90.9402 49.2316 91.846C46.3859 93.5495 42.4699 100.554 33.0948 101.884C26.1921 102.856 17.6716 98.7014 13.6561 96.4329C13.3408 96.2584 13.5399 95.793 13.8884 95.8761C19.8536 97.3137 24.2673 94.8291 22.4753 91.5302C21.1395 89.0706 17.5223 88.1482 12.2789 90.2339C7.61621 92.087 2.07414 86.0376 0.597357 84.2843C0.439724 84.1015 0.555875 83.8106 0.788177 83.7857C5.16044 83.3453 9.41656 78.8664 12.2291 74.1715C14.801 69.8755 20.5837 69.4849 22.4255 69.4683C22.6744 69.4683 22.8154 69.1858 22.6661 68.9863C22.0605 68.1886 20.6169 66.6513 18.186 66.1112V66.1195ZM30.1413 87.9571C29.7264 87.9322 29.4692 88.3975 29.7181 88.7299C30.7967 90.1342 33.5345 92.5855 38.7448 90.9818C45.8134 88.8047 46.1038 84.3175 40.9516 80.3455C36.4798 76.9054 29.2204 77.5618 24.8647 79.8968C24.4084 80.1461 24.5992 80.8441 25.1136 80.8026C26.8641 80.6696 30.133 80.8607 32.0827 82.2401C34.7126 84.0932 35.617 88.331 30.1413 87.9654V87.9571Z" fill="#E91315"/>
<path d="M18.4432 65.6708C18.9161 65.97 18.5095 65.8287 18.9824 65.8204C19.165 65.8204 19.4968 65.6875 19.6545 65.6459C20.0444 65.5545 20.426 65.4714 20.8243 65.3966C21.6954 65.2304 22.5665 65.1224 23.446 65.0725C25.0887 64.9728 26.7397 65.0476 28.3575 65.3301C31.253 65.8287 34.024 66.9007 36.5462 68.3964C38.7613 69.7093 40.7857 71.3297 42.5695 73.1744C44.3532 75.0191 45.5479 77.0134 47.0662 78.9579C48.1613 80.3622 49.3477 81.6834 50.6005 82.9465C51.6541 84.0018 52.9816 84.9324 53.9274 86.0709C54.4667 86.7107 54.533 87.6164 54.0601 88.3144C53.6536 88.9127 52.8903 89.1371 52.2681 89.4695C50.9904 90.1592 49.6547 90.8655 48.4932 91.7297C47.0745 92.7767 45.913 94.1727 44.6436 95.3859C42.8349 97.106 40.8438 98.6349 38.5871 99.7152C35.675 101.12 32.4228 101.734 29.2038 101.444C25.9847 101.153 22.5582 100.064 19.4719 98.7513C18.186 98.2028 16.9332 97.6046 15.697 96.9647C15.3901 96.8068 14.5023 96.1088 14.1788 96.1504C13.8718 96.1836 14.1207 96.3997 14.2783 96.5077C14.3862 96.5825 14.6766 96.5825 14.801 96.6074C15.2407 96.6822 15.6804 96.7404 16.1201 96.7736C18.327 96.9647 21.3221 96.6988 22.774 94.7627C23.9604 93.1839 23.2137 91.1231 21.8282 89.9431C19.9034 88.3061 17.1074 88.3726 14.7844 88.9044C13.233 89.2617 11.7562 90.1509 10.1301 90.0678C8.78602 90.0013 7.51666 89.4279 6.38003 88.7465C5.24341 88.0652 4.21464 87.2342 3.25224 86.3368C2.85401 85.9628 2.46407 85.5723 2.08243 85.1817C1.81695 84.8992 1.50168 84.3674 1.16982 84.1763C0.896032 84.0184 1.02878 84.2261 1.2113 84.276C1.46849 84.3425 1.9248 84.143 2.18199 84.0766C2.8872 83.8854 3.57581 83.6029 4.22294 83.2622C5.64994 82.5227 6.9359 81.5006 8.08082 80.3871C9.28381 79.2155 10.3541 77.9025 11.3248 76.5315C12.2457 75.2352 12.9343 73.7644 14.1456 72.6924C15.9874 71.0638 18.5095 70.3242 20.9238 70.0915C21.5295 70.0334 22.6661 70.2162 23.0809 69.6761C23.6617 68.9116 22.467 67.9477 21.9692 67.5073C20.9155 66.5849 19.6794 65.97 18.327 65.6376C17.6799 65.4797 17.4061 66.4769 18.0532 66.6431C18.941 66.8591 19.7623 67.1915 20.5256 67.6984C21.0815 68.064 21.4714 68.6374 21.9941 69.003C21.9941 69.003 22.1766 69.2606 22.2098 69.2689L22.3259 68.9864H22.2098C22.1434 68.9365 21.7452 69.003 21.6705 69.0113C21.2059 69.0362 20.7413 69.0778 20.285 69.1442C17.8541 69.46 15.4066 70.266 13.5233 71.8864C12.3286 72.9251 11.6234 74.2879 10.744 75.5842C9.64886 77.1879 8.41268 78.7003 6.98568 80.0215C5.67483 81.2347 4.16486 82.3399 2.46407 82.9215C1.73398 83.1708 -0.605638 83.1957 0.157642 84.5834C0.564171 85.3313 1.42701 86.0293 2.03266 86.6193C2.95357 87.5167 3.93256 88.3643 4.99451 89.1039C7.05205 90.5414 9.67375 91.6881 12.1959 90.8655C14.942 89.968 18.7584 88.5637 21.2723 90.8489C22.0688 91.5718 22.6993 92.7684 22.1932 93.8237C21.6622 94.9372 20.2518 95.4274 19.1318 95.6435C18.3104 95.8014 17.4642 95.8346 16.6345 95.8014C15.7136 95.7598 14.7097 95.3443 13.8137 95.4025C13.4404 95.4274 13.1085 95.6518 13.0172 96.0424C12.9011 96.5575 13.2827 96.8484 13.681 97.0727C16.1699 98.5269 18.858 99.7235 21.5627 100.696C24.7485 101.842 28.175 102.698 31.5849 102.574C34.638 102.457 37.6828 101.51 40.3377 100.006C42.5031 98.7762 44.3947 97.1558 46.1535 95.4108C47.6303 93.9483 48.9495 92.6604 50.7498 91.5967C51.5214 91.1314 52.293 90.6661 53.0977 90.2506C53.6785 89.9514 54.2841 89.7188 54.7322 89.2202C55.512 88.356 55.678 87.0182 55.1304 85.9878C54.8317 85.4227 54.3422 85.0405 53.8776 84.625C53.2222 84.035 52.5834 83.4367 51.9528 82.8218C50.6254 81.5255 49.356 80.1711 48.1945 78.7252C46.5518 76.681 45.2409 74.4541 43.4074 72.5595C41.5739 70.6649 39.4085 68.9116 37.0938 67.5405C31.6512 64.3164 25.2297 63.1946 19.0654 64.7734C18.551 64.9064 17.7546 64.9811 17.514 65.5462C17.3231 65.9949 17.5554 66.3772 17.9371 66.6098C18.5012 66.9671 19.0239 66.0697 18.4598 65.7124L18.4432 65.6708Z" fill="#E91315"/>
<path d="M30.1412 87.4336C29.1208 87.5582 28.8553 88.4806 29.4775 89.2534C29.9504 89.8267 30.5063 90.3253 31.1202 90.7408C32.9621 91.9789 35.2187 92.2282 37.3675 91.846C41.1092 91.1895 46.5767 88.3975 44.5523 83.7608C43.648 81.6917 41.6651 79.955 39.6905 78.9246C37.4588 77.7612 34.8869 77.3541 32.3896 77.4372C29.8924 77.5203 27.5278 78.0604 25.3127 79.0825C24.5992 79.4148 23.5289 80.1212 24.342 81.002C24.6407 81.326 25.0223 81.3177 25.4288 81.2928C26.0096 81.2679 26.5986 81.2762 27.1877 81.3177C29.5356 81.4756 32.3315 82.1902 33.3769 84.5585C33.659 85.1983 33.8 86.0127 33.3437 86.6109C32.6468 87.5333 31.1534 87.4918 30.133 87.4336C29.4692 87.4003 29.4692 88.439 30.133 88.4723C31.6097 88.5554 33.5428 88.4058 34.3559 86.9433C34.9781 85.8215 34.5882 84.4338 33.9328 83.4284C32.9538 81.9243 31.3774 81.0684 29.66 80.653C28.6147 80.3954 27.5278 80.2707 26.4493 80.2458C26.0345 80.2375 25.5865 80.304 25.1799 80.2707C25.0721 80.2624 25.0638 80.3871 25.1965 80.2957C25.2795 80.2375 25.379 80.2043 25.462 80.1627C25.7275 80.0298 26.0013 79.9051 26.2751 79.7888C30.3487 78.0853 35.6252 77.7945 39.5495 80.0464C41.2669 81.0269 43.1419 82.6722 43.7641 84.6249C44.2951 86.2786 43.5401 87.7494 42.2127 88.7631C40.1303 90.3502 36.9942 91.2975 34.3891 90.9153C33.4018 90.7657 32.456 90.4084 31.6346 89.8517C31.3194 89.6439 31.029 89.403 30.7552 89.137C30.6224 89.0041 30.2159 88.4806 30.1247 88.4889C30.7801 88.4058 30.7884 87.3671 30.1247 87.4502L30.1412 87.4336Z" fill="#E91315"/>
<path d="M94.2651 81.1682C87.5366 81.1682 82.0858 75.7088 82.0858 68.9697C82.0858 62.2307 87.5366 56.7713 94.2651 56.7713C100.994 56.7713 106.444 62.2307 106.444 68.9697C106.444 75.7088 100.994 81.1682 94.2651 81.1682ZM71.4081 43.6089V90.3253C71.4081 106.762 73.2334 112.146 75.3158 116.268C76.8424 119.284 80.1942 121.146 83.828 121.071C89.9592 120.938 94.2816 114.938 92.8878 108.964C92.5726 107.609 91.9752 106.379 91.0211 105.449C89.7849 104.244 88.9553 103.529 88.4326 103.105C86.7816 101.784 85.7196 99.79 85.7943 97.671C85.8524 95.9426 86.5742 94.2392 87.9348 92.9678C90.0338 91.0067 93.0538 90.6411 95.4929 91.8294C99.2927 94.0813 103.748 94.9621 108.477 94.9621C121.121 94.9621 133.151 83.9436 133.151 69.8256C133.151 54.9349 122.564 43.6006 108.477 43.6006H71.4081V43.6089Z" fill="#E91315"/>
</svg>
